<?xml version="1.0" encoding="UTF-8"?>
<!-- Generator: visioncortex VTracer 0.6.4 -->
<svg version="1.1" xmlns="http://www.w3.org/2000/svg" width="240" height="255">
<path d="M0 0 C0.78375 0.2475 1.5675 0.495 2.375 0.75 C4.55507539 5.11015078 3.69386664 10.89830344 3.75 15.6875 C3.78738281 16.89341797 3.82476562 18.09933594 3.86328125 19.34179688 C3.87488281 20.49615234 3.88648437 21.65050781 3.8984375 22.83984375 C3.91825684 23.90066162 3.93807617 24.96147949 3.95849609 26.05444336 C3.375 28.75 3.375 28.75 1.02978516 30.68188477 C-1.625 31.75 -1.625 31.75 -4.625 30.75 C-6.86095471 26.27809058 -5.85493514 20.16087547 -5.875 15.25 C-5.895625 13.98800781 -5.91625 12.72601563 -5.9375 11.42578125 C-5.94265625 10.22308594 -5.9478125 9.02039063 -5.953125 7.78125 C-5.9624707 6.67330078 -5.97181641 5.56535156 -5.98144531 4.42382812 C-5.86381836 3.54146484 -5.74619141 2.65910156 -5.625 1.75 C-2.625 -0.25 -2.625 -0.25 0 0 Z " fill="#000000" transform="translate(119.625,3.25)"/>
<path d="M0 0 C3.31341424 0.43519471 4.24175878 1.41590159 6.4921875 3.84375 C7.1728125 4.56820312 7.8534375 5.29265625 8.5546875 6.0390625 C11.11579506 8.90090617 13.67339044 11.76285204 16.171875 14.6796875 C17.27121548 15.94541464 18.4317309 17.1582934 19.6171875 18.34375 C19.7421875 21.96875 19.7421875 21.96875 19.6171875 25.34375 C16.53515625 26.2578125 16.53515625 26.2578125 12.6171875 26.34375 C9.916616 24.55149026 7.99109885 22.19831241 5.9296875 19.71875 C5.37474609 19.08839844 4.81980469 18.45804688 4.24804688 17.80859375 C2.67525482 16.00951413 1.14209799 14.18345226 -0.3828125 12.34375 C-1.16527344 11.42207031 -1.94773438 10.50039063 -2.75390625 9.55078125 C-4.3828125 7.34375 -4.3828125 7.34375 -4.7578125 4.65625 C-4.22791649 1.38855796 -3.27102892 0.47188614 0 0 Z " fill="#000000" transform="translate(45.3828125,27.65625)"/>
<path d="M0 0 C1 1 1 1 1.38671875 3.6875 C0.87952051 8.0319859 -1.19909174 10.05379006 -4.1875 13 C-5.16149181 13.99869922 -6.13415329 14.99869762 -7.10546875 16 C-7.82959961 16.73295288 -7.82959961 16.73295288 -8.56835938 17.48071289 C-10.0273519 19.02902642 -11.34510111 20.64332221 -12.66796875 22.30859375 C-15 25 -15 25 -18.125 26.0625 C-21 26 -21 26 -22.9375 24.875 C-24 23 -24 23 -23.81640625 20.64453125 C-22.82219618 17.42405175 -21.46115026 16.08466908 -19 13.8125 C-16.10148878 11.2043457 -16.10148878 11.2043457 -14 8 C-13.34 8 -12.68 8 -12 8 C-11.7525 7.4225 -11.505 6.845 -11.25 6.25 C-8.36451275 1.05612295 -6.02757177 -0.6697302 0 0 Z " fill="#000000" transform="translate(196,28)"/>
<path d="M0 0 C14.72984053 12.03943885 23.49775152 26.67752626 26.98681641 45.39160156 C28.99649591 66.69420428 19.56042293 83.75149939 7.37744141 100.31738281 C-3.7950205 115.56420583 -8.58665686 131.2175032 -10.63818359 149.82910156 C-11.51585843 157.08351125 -13.50013316 161.77788402 -18.88818359 166.70410156 C-20.70068359 167.70410156 -20.70068359 167.70410156 -22.70068359 167.70410156 C-22.94560547 168.58195313 -23.19052734 169.45980469 -23.44287109 170.36425781 C-26.39937372 178.21459864 -34.33273293 187.47581296 -41.70068359 191.70410156 C-45.23079932 191.36758586 -46.82828396 189.84739931 -49.21240234 187.28613281 C-50.32525439 186.10317985 -51.48144895 184.96073814 -52.65771484 183.84082031 C-56.93235823 179.75651355 -60.17469685 176.07182339 -62.70068359 170.70410156 C-62.70068359 169.71410156 -62.70068359 168.72410156 -62.70068359 167.70410156 C-63.40193359 167.51847656 -64.10318359 167.33285156 -64.82568359 167.14160156 C-68.93833922 165.08527375 -71.36919497 162.68416296 -73.70068359 158.70410156 C-74.99454684 154.11948573 -75.58294458 149.48371697 -76.20068359 144.76660156 C-78.86742162 127.24014619 -83.42928539 113.84047376 -94.08740234 99.48144531 C-100.36629564 90.98269227 -105.4193743 82.37456692 -109.70068359 72.70410156 C-110.08353516 71.86878906 -110.46638672 71.03347656 -110.86083984 70.17285156 C-116.07755846 56.39100888 -113.36921575 38.90828064 -107.70068359 25.70410156 C-98.97778673 8.25830784 -84.03828052 -3.8273402 -65.89599609 -10.29589844 C-43.99554501 -17.21883738 -18.44535364 -14.05511586 0 0 Z M-91.70849609 19.08300781 C-100.37695148 30.77228856 -104.74825886 43.92660795 -103.22412109 58.42285156 C-100.93896582 72.74770549 -93.00056067 84.30767481 -84.57568359 95.76660156 C-75.48835675 108.25317784 -71.14520595 120.81487588 -67.70068359 135.70410156 C-63.74068359 135.70410156 -59.78068359 135.70410156 -55.70068359 135.70410156 C-55.96166461 129.20768774 -56.22831105 122.71154079 -56.50024414 116.21557617 C-56.59197821 114.00502857 -56.68215524 111.7944158 -56.77075195 109.58374023 C-56.89826112 106.40883311 -57.0313415 103.23420138 -57.16552734 100.05957031 C-57.20411362 99.06886032 -57.24269989 98.07815033 -57.28245544 97.05741882 C-57.3424044 95.67632683 -57.3424044 95.67632683 -57.40356445 94.26733398 C-57.43687363 93.45681076 -57.4701828 92.64628754 -57.50450134 91.811203 C-57.63800877 89.51392781 -57.63800877 89.51392781 -58.70068359 86.70410156 C-60.92913283 85.45725743 -60.92913283 85.45725743 -63.57568359 84.39160156 C-67.01920949 82.74362845 -68.51552111 81.95461552 -70.82568359 78.82910156 C-72.25847164 73.71200139 -72.47112807 70.30662607 -70.13818359 65.45410156 C-67.13896173 62.07036408 -65.07216925 60.86983107 -60.70068359 59.70410156 C-57.72496825 59.78753283 -55.34952241 60.33640047 -52.70068359 61.70410156 C-49.53496432 65.36967125 -48.02324984 69.0751197 -46.70068359 73.70410156 C-42.5441241 73.86995447 -42.5441241 73.86995447 -38.70068359 72.70410156 C-37.03309974 70.23954257 -35.97322657 67.82506189 -34.90380859 65.05175781 C-33.47991443 62.27331497 -32.62845243 61.67288796 -29.70068359 60.70410156 C-25.20697361 60.01276156 -21.73704725 60.10874372 -17.76318359 62.39160156 C-14.34524634 66.22383424 -13.68111406 68.47122078 -13.76318359 73.64160156 C-14.50712063 78.12213145 -16.32401102 80.61480538 -19.70068359 83.70410156 C-22.34068359 84.69410156 -24.98068359 85.68410156 -27.70068359 86.70410156 C-28.36068359 102.87410156 -29.02068359 119.04410156 -29.70068359 135.70410156 C-26.07068359 135.70410156 -22.44068359 135.70410156 -18.70068359 135.70410156 C-18.42095703 134.56714844 -18.14123047 133.43019531 -17.85302734 132.25878906 C-13.48138235 115.14117147 -5.82659805 102.01751162 4.29931641 87.70410156 C13.39198037 74.78025897 18.72915698 61.15052331 16.88916016 45.13378906 C14.46083253 31.90158465 8.81025976 22.0970013 -0.70068359 12.70410156 C-1.24208984 12.14078125 -1.78349609 11.57746094 -2.34130859 10.99707031 C-13.94506505 -0.10854508 -30.12667564 -3.83095131 -45.64355469 -3.78833008 C-63.99706758 -3.26427051 -79.86984429 5.05627834 -91.70849609 19.08300781 Z M-61.70068359 68.70410156 C-62.36068359 69.36410156 -63.02068359 70.02410156 -63.70068359 70.70410156 C-63.33386702 73.63863417 -62.83631114 74.56847402 -60.70068359 76.70410156 C-59.38068359 76.70410156 -58.06068359 76.70410156 -56.70068359 76.70410156 C-56.70068359 74.39410156 -56.70068359 72.08410156 -56.70068359 69.70410156 C-59.09787791 69.02451553 -59.09787791 69.02451553 -61.70068359 68.70410156 Z M-27.70068359 68.70410156 C-29.05508027 71.41289492 -28.7656981 73.71343424 -28.70068359 76.70410156 C-24.76992715 76.1295741 -24.76992715 76.1295741 -21.70068359 73.70410156 C-22.02109757 71.10129588 -22.02109757 71.10129588 -22.70068359 68.70410156 C-24.35068359 68.70410156 -26.00068359 68.70410156 -27.70068359 68.70410156 Z M-49.70068359 85.70410156 C-50.15860989 88.87235126 -49.90493574 91.9730361 -49.68896484 95.15722656 C-49.64128464 96.09080994 -49.59360443 97.02439331 -49.54447937 97.98626709 C-49.3866631 100.97695954 -49.19990675 103.96508913 -49.01318359 106.95410156 C-48.90524299 108.95270197 -48.79910205 110.95140045 -48.69482422 112.95019531 C-48.09128149 124.36584132 -48.09128149 124.36584132 -46.70068359 135.70410156 C-44.06068359 135.70410156 -41.42068359 135.70410156 -38.70068359 135.70410156 C-37.63713517 126.70684319 -37.08645412 117.71750263 -36.60595703 108.67285156 C-36.50183471 106.76590684 -36.39108032 104.85931346 -36.27392578 102.953125 C-36.10422882 100.18583204 -35.95488821 97.41810613 -35.81005859 94.64941406 C-35.75396423 93.79630646 -35.69786987 92.94319885 -35.64007568 92.0642395 C-35.2854309 87.75951093 -35.2854309 87.75951093 -36.99664307 83.97994995 C-41.09382614 80.91230905 -46.52423259 82.00777243 -49.70068359 85.70410156 Z M-50.95068359 145.20410156 C-52.38947954 145.25246172 -53.82828161 145.30063989 -55.26708984 145.34863281 C-58.74502738 145.46503116 -62.22287627 145.58386843 -65.70068359 145.70410156 C-65.91760765 151.05988173 -65.07864122 153.45752626 -61.70068359 157.70410156 C-58.07230256 160.12302225 -56.33831916 159.96167293 -52.02099609 159.96972656 C-51.37121796 159.97164001 -50.72143982 159.97355347 -50.05197144 159.9755249 C-48.67852389 159.97688436 -47.3050634 159.97320455 -45.93164062 159.96484375 C-43.8400344 159.95417476 -41.74929379 159.96472845 -39.65771484 159.97753906 C-38.32047338 159.97621675 -36.98323245 159.97365286 -35.64599609 159.96972656 C-34.43443848 159.9674707 -33.22288086 159.96521484 -31.97460938 159.96289062 C-28.75240518 159.70818992 -26.56126014 159.1770898 -23.70068359 157.70410156 C-20.69773949 153.95042143 -20.1632881 150.42266752 -19.70068359 145.70410156 C-29.0728829 142.58003513 -41.07944841 144.86213131 -50.95068359 145.20410156 Z " fill="#000000" transform="translate(163.70068359375,61.2958984375)"/>
<path d="M0 0 C5.59517574 0.75838412 11.09531652 1.74806843 16.60522461 2.98217773 C17.40637695 3.15168945 18.2075293 3.32120117 19.03295898 3.49584961 C24.92420121 4.80115433 24.92420121 4.80115433 27.16772461 7.04467773 C27.41772461 9.54467773 27.41772461 9.54467773 27.16772461 12.04467773 C25.16772461 14.04467773 25.16772461 14.04467773 23.41772461 14.16186523 C-0.26418201 11.61277112 -0.26418201 11.61277112 -3.83227539 8.04467773 C-4.01977539 5.10717773 -4.01977539 5.10717773 -3.83227539 2.04467773 C-1.83227539 0.04467773 -1.83227539 0.04467773 0 0 Z " fill="#000000" transform="translate(7.832275390625,88.955322265625)"/>
<path d="M0 0 C2 2 2 2 2.125 5.125 C2.08375 6.07375 2.0425 7.0225 2 8 C-2.95260723 10.30841862 -8.17329215 11.20957013 -13.5 12.25 C-14.43714844 12.44851562 -15.37429687 12.64703125 -16.33984375 12.8515625 C-25.0480997 14.55615728 -25.0480997 14.55615728 -29 12 C-29.9375 10.0625 -29.9375 10.0625 -30 8 C-27.63053927 4.44580891 -26.9656544 4.45801476 -22.94921875 3.61328125 C-21.94052734 3.39736328 -20.93183594 3.18144531 -19.89257812 2.95898438 C-18.83490234 2.74564453 -17.77722656 2.53230469 -16.6875 2.3125 C-15.64142578 2.08755859 -14.59535156 1.86261719 -13.51757812 1.63085938 C-4.12120121 -0.33693694 -4.12120121 -0.33693694 0 0 Z " fill="#000000" transform="translate(235,89)"/>
<path d="M0 0 C2 3 2 3 1.91870117 5.49072266 C0.70753759 8.79881177 -0.63895226 9.46572606 -3.69921875 11.1484375 C-4.66150391 11.67824219 -5.62378906 12.20804688 -6.61523438 12.75390625 C-7.62908203 13.28886719 -8.64292969 13.82382813 -9.6875 14.375 C-10.68201172 14.93316406 -11.67652344 15.49132812 -12.70117188 16.06640625 C-20.89495091 20.48221531 -20.89495091 20.48221531 -27 19 C-27.6875 16.6875 -27.6875 16.6875 -28 14 C-24.80247444 10.0562353 -20.00243715 7.83633116 -15.6875 5.3125 C-14.42389648 4.54583008 -14.42389648 4.54583008 -13.13476562 3.76367188 C-4.96104024 -1.02297419 -4.96104024 -1.02297419 0 0 Z " fill="#000000" transform="translate(44,150)"/>
<path d="M0 0 C6.36992358 0.27550128 10.87290523 2.77659448 16.3125 5.9375 C17.12267578 6.39318359 17.93285156 6.84886719 18.76757812 7.31835938 C24.68164817 10.68164817 24.68164817 10.68164817 27 13 C27.125 16.125 27.125 16.125 27 19 C21.25089082 20.55816978 18.31668655 19.63279807 13.18164062 16.72851562 C12.39982422 16.26123047 11.61800781 15.79394531 10.8125 15.3125 C10.01908203 14.86455078 9.22566406 14.41660156 8.40820312 13.95507812 C0.78626439 9.5585442 0.78626439 9.5585442 -2 6 C-1.7 1.7 -1.7 1.7 0 0 Z " fill="#000000" transform="translate(197,150)"/>
</svg>
