<?xml version="1.0" encoding="UTF-8"?>
<!-- Generator: visioncortex VTracer 0.6.4 -->
<svg version="1.1" xmlns="http://www.w3.org/2000/svg" width="272" height="236">
<path d="M0 0 C23.1233132 -0.62565898 43.74216453 7.23011497 60.62817383 23.03344727 C64.63204501 26.87145037 68.42305342 30.78593678 71.83984375 35.15625 C72.60361328 36.12884766 72.60361328 36.12884766 73.3828125 37.12109375 C80.82240976 47.39118045 84.52368503 59.83221142 86.83984375 72.15625 C87.06671875 73.331875 87.29359375 74.5075 87.52734375 75.71875 C88.33560362 84.60960861 87.75742249 92.66272909 86.02734375 101.40625 C85.86210205 102.24567139 85.69686035 103.08509277 85.52661133 103.94995117 C84.68322491 107.96843939 83.68775196 111.70812529 82.140625 115.515625 C80.64460857 119.47620071 80.64460857 119.47620071 81.83984375 123.15625 C83.74299196 125.20255542 83.74299196 125.20255542 86.17578125 127.1796875 C90.1118422 130.60046192 93.8978085 134.11575267 97.56640625 137.8203125 C98.04938171 138.30667175 98.53235718 138.79303101 99.02996826 139.29412842 C100.51036747 140.78776902 101.98805263 142.28404242 103.46484375 143.78125 C112.06318793 152.51593414 112.06318793 152.51593414 121.19677734 160.68310547 C123.47663861 162.7271891 125.33739613 165.04290795 127.2734375 167.40625 C129.01755265 169.35478763 130.89809456 170.97792544 132.90234375 172.65625 C139.22945377 178.12442157 142.55103216 182.87814357 143.7421875 191.3203125 C143.97317683 198.02824273 141.85342732 203.31219706 137.71484375 208.53125 C133.07100476 213.36084255 127.59625475 216.25794428 120.83984375 216.59375 C107.29313622 215.73364159 99.55765148 206.02932283 90.51953125 196.96875 C89.22609299 195.67674683 89.22609299 195.67674683 87.90652466 194.35864258 C86.09514586 192.54794052 84.28501418 190.73599009 82.47607422 188.92285156 C79.71954529 186.16096069 76.95771213 183.40445519 74.1953125 180.6484375 C72.42806466 178.88052891 70.66112701 177.11231018 68.89453125 175.34375 C68.07564423 174.52688721 67.2567572 173.71002441 66.41305542 172.8684082 C62.46207359 168.9013473 58.65291289 164.91217242 55.12698364 160.55981445 C53.69778349 158.88942167 53.69778349 158.88942167 50.83984375 157.15625 C47.5951475 157.46424545 44.89322616 159.07285636 42.01757812 160.53076172 C21.26221872 170.96820816 -2.13092096 172.92792922 -24.28125 165.90234375 C-46.21136173 158.42879251 -63.23817471 143.58152534 -74.55859375 123.421875 C-85.24193229 101.63828715 -85.46297144 78.00513478 -78.03515625 55.15625 C-69.99733412 33.96127855 -55.04009606 17.7529996 -34.72265625 7.78125 C-23.49346069 2.94721825 -12.15150803 0.60081622 0 0 Z M-55.16015625 36.15625 C-68.49645302 52.07056696 -74.39124632 72.12932728 -72.90625 92.66796875 C-70.44899637 111.01988998 -62.97350952 124.92047849 -50.16015625 138.15625 C-49.62132813 138.78015625 -49.0825 139.4040625 -48.52734375 140.046875 C-36.79300572 153.13744306 -17.59213991 159.01421814 -0.59399414 160.10083008 C20.03582545 160.9101703 39.3783594 152.47808907 54.83984375 139.15625 C69.16676599 123.55859205 78.43032314 104.48789133 77.88647461 83.02539062 C76.78154882 62.83515839 68.5155912 43.72380939 53.7265625 29.765625 C38.34081967 16.64155451 19.80681691 9.19146272 -0.47265625 9.8359375 C-22.37871014 11.73879388 -40.02578834 20.50150268 -55.16015625 36.15625 Z M73.83984375 131.15625 C72.48610411 132.66528877 71.20540974 134.24037698 69.96484375 135.84375 C69.28679687 136.71386719 68.60875 137.58398438 67.91015625 138.48046875 C67.22695312 139.36347656 66.54375 140.24648437 65.83984375 141.15625 C63.60058933 144.01658065 61.41527516 146.58081859 58.83984375 149.15625 C61.14984375 151.79625 63.45984375 154.43625 65.83984375 157.15625 C69.2127794 155.46978217 70.77331369 154.46475283 73.29296875 151.8984375 C73.91171875 151.27324219 74.53046875 150.64804688 75.16796875 150.00390625 C75.8021875 149.35292969 76.43640625 148.70195312 77.08984375 148.03125 C77.73953125 147.37253906 78.38921875 146.71382812 79.05859375 146.03515625 C80.65696102 144.41328357 82.25046272 142.7869219 83.83984375 141.15625 C82.1484995 137.39595905 80.10721968 135.6696161 76.83984375 133.15625 C76.50984375 132.49625 76.17984375 131.83625 75.83984375 131.15625 C75.17984375 131.15625 74.51984375 131.15625 73.83984375 131.15625 Z M90.07397461 148.80859375 C89.32510986 149.56269531 88.57624512 150.31679687 87.8046875 151.09375 C86.99580078 151.90585938 86.18691406 152.71796875 85.35351562 153.5546875 C84.50337891 154.41320312 83.65324219 155.27171875 82.77734375 156.15625 C81.92333984 157.01476562 81.06933594 157.87328125 80.18945312 158.7578125 C78.07067995 160.8884224 75.95426616 163.02132372 73.83984375 165.15625 C78.11128112 170.24818481 82.56670072 175.05576633 87.25 179.76953125 C87.93992538 180.46515671 88.62985077 181.16078217 89.34068298 181.87748718 C90.78896513 183.33515241 92.23865698 184.79141825 93.68969727 186.24633789 C95.90649605 188.47292063 98.1124035 190.70994661 100.31835938 192.94726562 C101.73241373 194.36784397 103.14710529 195.78778837 104.5625 197.20703125 C105.21783218 197.87471024 105.87316437 198.54238922 106.5483551 199.2303009 C111.07023464 203.73032481 114.09840106 206.15625 120.71484375 206.15625 C125.48873408 205.41344354 128.74081803 202.76728866 131.83984375 199.15625 C133.04627941 195.53694302 133.16252934 192.96393995 132.83984375 189.15625 C129.68724732 183.49742889 125.18335031 179.22625062 120.609375 174.6953125 C119.81834885 173.90474457 119.02732269 173.11417664 118.21232605 172.2996521 C116.54797286 170.63830893 114.88120101 168.97938567 113.2121582 167.32275391 C110.64537644 164.77433253 108.08679071 162.21789522 105.52929688 159.66015625 C103.91062933 158.04640034 102.29150484 156.43310261 100.671875 154.8203125 C99.90212845 154.05167877 99.1323819 153.28304504 98.33930969 152.49111938 C97.63154892 151.78973846 96.92378815 151.08835754 96.19458008 150.36572266 C95.56932938 149.74428375 94.94407867 149.12284485 94.29988098 148.48257446 C92.15618951 146.53520601 92.24354797 146.77849939 90.07397461 148.80859375 Z " fill="#000000" transform="translate(96.16015625,6.84375)"/>
<path d="M0 0 C15.78753874 13.30011302 24.41085419 29.6674741 26.8125 50.25 C27.46410592 68.51413062 20.72573317 85.8978427 9.06640625 99.8359375 C-4.37937898 114.23714248 -22.53491621 121.7086557 -42.140625 122.38671875 C-57.75207528 122.15758052 -71.99250166 116.84903334 -84.1875 107.25 C-84.94804688 106.66605469 -85.70859375 106.08210938 -86.4921875 105.48046875 C-98.73168999 95.42205407 -106.66647816 80.83449866 -109.1875 65.25 C-110.81634657 45.5798861 -107.56973134 27.88445636 -95.375 11.9375 C-71.14579065 -16.31449792 -30.45066026 -23.23619614 0 0 Z M-87.08203125 16.5234375 C-98.18064961 31.46667529 -102.0670972 47.1387829 -99.79296875 65.421875 C-96.52746936 81.01200114 -87.34512235 94.23448458 -74.30029297 103.09155273 C-60.01882949 112.35152187 -45.2874891 114.9311991 -28.67578125 111.53125 C-14.19723387 107.83595518 -1.16288925 100.11103933 6.8125 87.25 C8.29125267 84.61393143 9.69004942 81.942771 11.0625 79.25 C11.404021 78.58564941 11.74554199 77.92129883 12.09741211 77.23681641 C15.69550304 69.94748009 17.19065731 63.11430556 17.125 55 C17.11936035 54.25983643 17.1137207 53.51967285 17.10791016 52.75708008 C16.76831934 37.24181456 10.44702664 23.49221388 -0.1875 12.25 C-12.48829307 0.61411466 -27.59975359 -5.54169153 -44.546875 -5.09375 C-61.063904 -3.5342022 -76.40667251 3.71300702 -87.08203125 16.5234375 Z " fill="#000000" transform="translate(140.1875,37.75)"/>
<path d="M0 0 C1.9375 0.75 1.9375 0.75 3.9375 2.75 C4.0625 5.875 4.0625 5.875 3.9375 8.75 C4.51757812 8.85957031 5.09765625 8.96914063 5.6953125 9.08203125 C6.47648437 9.24058594 7.25765625 9.39914063 8.0625 9.5625 C8.82820313 9.71332031 9.59390625 9.86414062 10.3828125 10.01953125 C18.68329907 12.39291197 25.90401726 18.12587433 30.62109375 25.31640625 C32.55681363 29.07871046 33.97017539 32.60713813 34.8125 36.75 C35.369375 38.235 35.369375 38.235 35.9375 39.75 C39.41707529 41.22082547 39.41707529 41.22082547 42.9375 41.75 C43.9375 42.75 43.9375 42.75 44.1875 45.1875 C44.105 46.033125 44.0225 46.87875 43.9375 47.75 C40.5022952 50.04013653 38.952169 49.92842973 34.9375 49.75 C34.73125 51.02875 34.525 52.3075 34.3125 53.625 C32.34446792 62.36416345 27.42275771 69.80884756 19.9375 74.75 C14.80006542 77.75568509 9.96384538 80.27423589 3.9375 80.75 C3.97875 81.86375 4.02 82.9775 4.0625 84.125 C3.9375 87.75 3.9375 87.75 1.9375 89.75 C-0.5 90.1875 -0.5 90.1875 -3.0625 89.75 C-5.69810713 86.47821183 -6.0625 85.02931853 -6.0625 80.75 C-6.67996094 80.60304688 -7.29742187 80.45609375 -7.93359375 80.3046875 C-18.50346644 77.50536049 -26.50638659 72.13908136 -32.28125 62.7734375 C-34.62638377 58.43494002 -35.65376983 54.6547621 -36.0625 49.75 C-36.990625 49.79125 -37.91875 49.8325 -38.875 49.875 C-42.0625 49.75 -42.0625 49.75 -45.0625 47.75 C-45.3125 44.6875 -45.3125 44.6875 -45.0625 41.75 C-43.09427114 39.78177114 -39.71441291 40.08751619 -37.0625 39.75 C-36.80597656 38.85539062 -36.54945312 37.96078125 -36.28515625 37.0390625 C-32.83882725 26.15469684 -27.54433059 17.3254418 -17.0625 11.75 C-13.32579836 10.11071901 -10.17665063 8.75 -6.0625 8.75 C-5.959375 7.63625 -5.85625 6.5225 -5.75 5.375 C-5.523125 4.17875 -5.29625 2.9825 -5.0625 1.75 C-2.0625 -0.25 -2.0625 -0.25 0 0 Z M-20.40625 26.81640625 C-25.22417225 32.44110321 -27.46364152 39.08605601 -27.33984375 46.47265625 C-26.43413077 53.90970793 -22.7640449 60.90860196 -17.0625 65.75 C-10.06089923 70.67612625 -3.49558236 71.79976129 4.9375 70.75 C11.96207672 69.29003686 17.42944241 65.44403832 21.44921875 59.5234375 C25.53427307 52.14927068 27.19955124 44.39128735 25 36.125 C22.2610044 29.2217396 17.19229402 23.49652442 10.5 20.25 C-1.13064416 15.95560831 -11.31370847 18.15240663 -20.40625 26.81640625 Z " fill="#000000" transform="translate(99.0625,47.25)"/>
<path d="M0 0 C0.8910997 -0.00637985 1.7821994 -0.0127597 2.70030212 -0.01933289 C3.66488846 -0.02044571 4.62947479 -0.02155853 5.62329102 -0.02270508 C6.61216812 -0.02603348 7.60104523 -0.02936188 8.61988831 -0.03279114 C10.71387262 -0.03785972 12.80786503 -0.04019948 14.90185547 -0.04003906 C18.11056791 -0.042225 21.31893635 -0.06038 24.52758789 -0.0793457 C26.55948775 -0.0822797 28.59138925 -0.08426445 30.62329102 -0.08520508 C32.06713417 -0.09598335 32.06713417 -0.09598335 33.54014587 -0.10697937 C34.43439774 -0.10390274 35.3286496 -0.10082611 36.25 -0.09765625 C37.03672592 -0.09908127 37.82345184 -0.10050629 38.63401794 -0.10197449 C40.68969727 0.14526367 40.68969727 0.14526367 43.68969727 2.14526367 C44.06469727 5.14526367 44.06469727 5.14526367 43.68969727 8.14526367 C40.56955478 10.22535866 39.83339261 10.40110855 36.28173828 10.43579102 C35.3939418 10.44855072 34.50614532 10.46131042 33.59144592 10.47445679 C32.15701393 10.47779526 32.15701393 10.47779526 30.69360352 10.48120117 C29.70851303 10.48785797 28.72342255 10.49451477 27.70848083 10.50137329 C25.62468331 10.51150028 23.54085336 10.5161903 21.45703125 10.51586914 C18.26776767 10.52024232 15.0798878 10.55656188 11.89086914 10.59448242 C9.86678534 10.60035052 7.84269495 10.60431996 5.81860352 10.60620117 C4.86433975 10.6205722 3.91007599 10.63494324 2.92689514 10.64974976 C-3.71509827 10.60387741 -3.71509827 10.60387741 -6.94335938 8.11645508 C-7.39445068 7.46596191 -7.84554199 6.81546875 -8.31030273 6.14526367 C-6.46017113 0.99132563 -5.42789697 0.02632555 0 0 Z " fill="#000000" transform="translate(213.310302734375,69.854736328125)"/>
<path d="M0 0 C2.99294534 2.7841352 3.90851064 4.46362833 4.63671875 8.40625 C4.74470692 12.85868551 2.85057718 16.16461509 0 19.4375 C-3.41465933 21.00639753 -6.66030814 21.05182223 -10.3125 20.5 C-13.23177604 19.1038245 -15.03452996 17.77797004 -17.3125 15.5 C-18.64032189 10.82457082 -18.78208907 7.45657032 -16.625 3.0625 C-11.80134985 -2.28262584 -6.68501984 -3.0271788 0 0 Z " fill="#000000" transform="translate(105.3125,82.5)"/>
<path d="M0 0 C1.05449341 -0.00960754 2.10898682 -0.01921509 3.19543457 -0.02911377 C4.33814819 -0.03336365 5.48086182 -0.03761353 6.65820312 -0.04199219 C8.41142883 -0.0505423 8.41142883 -0.0505423 10.20007324 -0.05926514 C12.67487683 -0.06872293 15.14969305 -0.0752522 17.62451172 -0.07910156 C21.42372357 -0.08882692 25.22239914 -0.11985177 29.02148438 -0.15136719 C31.42122073 -0.15789496 33.82096097 -0.16314631 36.22070312 -0.16699219 C37.36341675 -0.17933899 38.50613037 -0.19168579 39.68347168 -0.20440674 C40.73796509 -0.20140564 41.7924585 -0.19840454 42.87890625 -0.1953125 C43.80997192 -0.19895813 44.7410376 -0.20260376 45.70031738 -0.20635986 C46.43923218 -0.08508728 47.17814697 0.0361853 47.93945312 0.16113281 C49.93945312 3.16113281 49.93945312 3.16113281 49.62695312 5.78613281 C48.93945312 8.16113281 48.93945312 8.16113281 47.93945312 9.16113281 C46.29848192 9.2702448 44.65285124 9.31019494 43.00830078 9.32226562 C41.43128891 9.33667694 41.43128891 9.33667694 39.82241821 9.35137939 C38.10531143 9.35775421 38.10531143 9.35775421 36.35351562 9.36425781 C35.18565521 9.36995789 34.0177948 9.37565796 32.81454468 9.38153076 C30.33796093 9.39099797 27.86136448 9.39752154 25.38476562 9.40136719 C21.58766795 9.41107347 17.79111111 9.44208177 13.99414062 9.47363281 C11.59310219 9.48016233 9.19205986 9.485413 6.79101562 9.48925781 C5.07998154 9.50777802 5.07998154 9.50777802 3.3343811 9.52667236 C2.27673553 9.52367126 1.21908997 9.52067017 0.12939453 9.51757812 C-0.80246674 9.52122375 -1.734328 9.52486938 -2.69442749 9.52862549 C-5.06054688 9.16113281 -5.06054688 9.16113281 -6.89663696 7.80291748 C-8.06054688 6.16113281 -8.06054688 6.16113281 -7.87304688 3.53613281 C-6.47063378 -0.56322855 -3.89769798 0.02858391 0 0 Z " fill="#000000" transform="translate(215.060546875,101.8388671875)"/>
</svg>
