<?xml version="1.0" encoding="UTF-8"?>
<!-- Generator: visioncortex VTracer 0.6.4 -->
<svg version="1.1" xmlns="http://www.w3.org/2000/svg" width="314" height="273">
<path d="M0 0 C2.4375 0.8125 2.4375 0.8125 4.4375 3.8125 C4.68041992 5.75439453 4.68041992 5.75439453 4.66796875 7.9453125 C4.66603516 8.75226562 4.66410156 9.55921875 4.66210938 10.390625 C4.64986328 11.23109375 4.63761719 12.0715625 4.625 12.9375 C4.62435547 13.75476562 4.62371094 14.57203125 4.62304688 15.4140625 C4.51395045 30.73604955 4.51395045 30.73604955 1.4375 33.8125 C-4.13068182 33.24431818 -4.13068182 33.24431818 -5.5625 31.8125 C-5.80439961 27.55543347 -5.79099951 23.29271838 -5.80273438 19.02954102 C-5.81244498 16.88713839 -5.84345753 14.74569303 -5.875 12.60351562 C-5.88152936 11.24740155 -5.8867801 9.89128059 -5.890625 8.53515625 C-5.8999707 7.29515869 -5.90931641 6.05516113 -5.91894531 4.77758789 C-5.80131836 3.79910889 -5.68369141 2.82062988 -5.5625 1.8125 C-2.5625 -0.1875 -2.5625 -0.1875 0 0 Z " fill="#000000" transform="translate(251.5625,10.1875)"/>
<path d="M0 0 C1.43644608 2.87289216 1.34755541 4.81342459 1 8 C-0.94140625 10.5625 -0.94140625 10.5625 -3.5625 13 C-4.46871094 13.8559375 -5.37492187 14.711875 -6.30859375 15.59375 C-8.55291384 17.60028291 -10.8175977 19.5668991 -13.125 21.5 C-14.548125 22.7375 -14.548125 22.7375 -16 24 C-16 24.66 -16 25.32 -16 26 C-13.80243449 27.70690474 -11.60441885 29.30431436 -9.3125 30.875 C2.69035725 39.20654046 2.69035725 39.20654046 4 42.5625 C4 45 4 45 2.7578125 46.47436523 C0.87848176 48.1054677 -1.04744525 49.47774531 -3.125 50.84765625 C-3.91390625 51.37037109 -4.7028125 51.89308594 -5.515625 52.43164062 C-6.74539063 53.23891602 -6.74539063 53.23891602 -8 54.0625 C-8.81984375 54.60455078 -9.6396875 55.14660156 -10.484375 55.70507812 C-12.00676735 56.71129987 -13.53010396 57.71609549 -15.0546875 58.71899414 C-16.70688183 59.80697904 -18.35399983 60.90266655 -20 62 C-25.44444444 61.55555556 -25.44444444 61.55555556 -28 59 C-28.45703125 56.13671875 -28.45703125 56.13671875 -28 53 C-25.69921875 50.76953125 -25.69921875 50.76953125 -22.6875 48.8125 C-18.04103179 45.76881044 -18.04103179 45.76881044 -14 42 C-14.67546875 41.76667969 -15.3509375 41.53335938 -16.046875 41.29296875 C-19.75229565 39.67062188 -22.92840069 37.60385222 -26.25 35.3125 C-26.88679688 34.90322266 -27.52359375 34.49394531 -28.1796875 34.07226562 C-31.59595731 31.70631706 -32.82823954 30.50856761 -34.19921875 26.44921875 C-34 23 -34 23 -32.19140625 20.59375 C-31.32386719 19.9028125 -30.45632813 19.211875 -29.5625 18.5 C-28.17804688 17.35917969 -28.17804688 17.35917969 -26.765625 16.1953125 C-25.85296875 15.47085938 -24.9403125 14.74640625 -24 14 C-22.59651246 12.80056561 -21.19986801 11.59304357 -19.8125 10.375 C-19.17699219 9.82328125 -18.54148437 9.2715625 -17.88671875 8.703125 C-15.29816167 6.3664565 -12.86509884 3.8926374 -10.4453125 1.3828125 C-7.09825108 -1.81951113 -4.31988395 -0.86397679 0 0 Z " fill="#000000" transform="translate(300,28)"/>
<path d="M0 0 C3.65668263 1.71536688 5.21985103 3.50759115 7.66015625 6.703125 C8.42328125 7.69054688 9.18640625 8.67796875 9.97265625 9.6953125 C10.67390625 10.60539062 11.37515625 11.51546875 12.09765625 12.453125 C13.11155778 13.58437625 14.13073946 14.71097382 15.16015625 15.828125 C17.09765625 18.453125 17.09765625 18.453125 17.53515625 21.203125 C17.09765625 23.453125 17.09765625 23.453125 15.09765625 25.453125 C12.25 25.85546875 12.25 25.85546875 9.09765625 25.453125 C6.7890625 23.58203125 6.7890625 23.58203125 4.66015625 21.015625 C3.90089844 20.10554688 3.14164063 19.19546875 2.359375 18.2578125 C1.61300781 17.33226563 0.86664063 16.40671875 0.09765625 15.453125 C-0.61777344 14.63070312 -1.33320313 13.80828125 -2.0703125 12.9609375 C-3.03904297 11.81238281 -3.03904297 11.81238281 -4.02734375 10.640625 C-4.60742188 9.95355469 -5.1875 9.26648437 -5.78515625 8.55859375 C-6.90234375 6.453125 -6.90234375 6.453125 -6.76953125 3.81640625 C-5.4053019 0.09857402 -3.84819788 -0.72509785 0 0 Z " fill="#000000" transform="translate(211.90234375,31.546875)"/>
<path d="M0 0 C0.61230469 0.43699219 1.22460938 0.87398437 1.85546875 1.32421875 C12.97093241 9.79435468 20.02719769 24.40524348 22 38 C23.38207527 59.31790492 18.82487898 75.43468643 5 92 C19.03846131 88.97826842 28.5825375 76.69137417 37 66 C38.56206791 64.07381009 40.13199066 62.15417385 41.7019043 60.234375 C45.91306859 55.08241214 50.09072836 49.90983177 54.16894531 44.65185547 C79.18652475 12.43002077 79.18652475 12.43002077 94.9375 10.125 C99.85364375 9.77384687 103.77551632 10.38439541 108 13 C111.83962393 16.49767269 114.70758209 20.58245195 115.3359375 25.77734375 C115.57034448 44.74086878 105.80682905 60.46973587 96.125 76.125 C95.38227356 77.33612697 94.64018294 78.54764405 93.89868164 79.75952148 C92.36515605 82.2645814 90.82898232 84.76798403 89.29052734 87.27001953 C83.17385005 97.2230126 77.12029527 107.21494402 71.0791626 117.21392822 C70.3470173 118.42566783 69.61454386 119.63720922 68.8817749 120.84857178 C66.64063975 124.5545311 64.40733452 128.26502191 62.18435669 131.98190308 C61.15638803 133.69761246 60.12211396 135.40953904 59.08764648 137.12133789 C52.79991336 147.67282089 49.91537394 156.54661042 49.75390625 168.828125 C49.72100594 170.53125588 49.68779373 172.23438075 49.65429688 173.9375 C49.60667886 176.60608292 49.56214048 179.27463515 49.52319336 181.94335938 C49.48363296 184.53018337 49.43209844 187.11655054 49.37890625 189.703125 C49.3704921 190.50518372 49.36207794 191.30724243 49.35340881 192.13360596 C49.22679638 197.77320362 49.22679638 197.77320362 47 200 C44.0625 200.375 44.0625 200.375 41 200 C38.42785841 197.59576262 38.01313379 196.1109428 37.59594727 192.58691406 C37.56941935 191.23004128 37.56067175 189.87274496 37.56640625 188.515625 C37.5611644 187.78237 37.55592255 187.04911499 37.55052185 186.29364014 C37.54410279 184.73695129 37.54543722 183.18021393 37.55395508 181.62353516 C37.5623241 179.2988603 37.5339406 176.97676674 37.50195312 174.65234375 C37.4076803 154.41645931 44.17193378 139.3687121 54.64453125 122.4375 C58.61189277 116.02208923 62.52449708 109.57362968 66.4375 103.125 C66.80273773 102.52350128 67.16797546 101.92200256 67.54428101 101.30227661 C72.73213339 92.75854789 77.8958763 84.20073603 83.02172852 75.61962891 C85.7566678 71.04689076 88.54485668 66.51437173 91.375 62 C101.51795555 45.65125235 101.51795555 45.65125235 104 27 C102.98263229 24.23857335 102.63829259 23.31914629 100 22 C92.99607682 20.97859454 88.53853938 23.89296003 83 28 C76.568138 33.46598512 71.51801803 40.01439702 66.4765625 46.73046875 C63.48364097 50.7120606 60.31762935 54.54476864 57.1484375 58.38671875 C55.07630273 60.90718813 53.03338965 63.44821654 51 66 C46.70944823 71.36956182 42.40323774 76.72214654 38 82 C37.2678125 82.88171875 36.535625 83.7634375 35.78125 84.671875 C22.84260256 99.70621886 6.11079986 105.14590376 -12.75 108.875 C-13.4899118 109.02508514 -14.22982361 109.17517029 -14.99215698 109.32980347 C-28.93266436 112.13279106 -41.90737357 113.71293476 -55.91723633 110.42944336 C-71.33997447 107.24944144 -90.77231845 115.73138642 -103.63671875 123.72265625 C-117.08124585 132.58289309 -123.46440666 146.71927272 -127 162 C-128.8671574 171.2228541 -130.23640639 180.55870158 -130.59375 189.96875 C-131.10708793 192.53543964 -131.8921785 193.47603516 -134 195 C-139.43478261 194.56521739 -139.43478261 194.56521739 -141 193 C-143.06271326 170.6274946 -136.89129349 146.20281101 -124.4140625 127.640625 C-123.71410156 126.82851563 -123.71410156 126.82851563 -123 126 C-122.34 126 -121.68 126 -121 126 C-120.73316406 125.40574219 -120.46632813 124.81148437 -120.19140625 124.19921875 C-113.68672856 112.19222354 -95.37602604 106.04871592 -83.08984375 102.31982422 C-80.29134416 101.51850127 -77.92603183 101 -75 101 C-75.66 100.34 -76.32 99.68 -77 99 C-77.45632812 98.53851563 -77.91265625 98.07703125 -78.3828125 97.6015625 C-79.52402751 96.47137373 -80.68793368 95.36387722 -81.8671875 94.2734375 C-94.70381879 82.13607795 -101.53302401 66.19568798 -102.3125 48.625 C-101.85882858 31.96013637 -94.7831943 16.47117131 -84 4 C-74.32894694 -4.48985574 -62.91772896 -11.25555455 -50 -13 C-49.11183594 -13.13277344 -48.22367187 -13.26554687 -47.30859375 -13.40234375 C-29.78890145 -15.47857892 -13.78134272 -10.84393397 0 0 Z M-71 7 C-72.03125 7.721875 -73.0625 8.44375 -74.125 9.1875 C-83.97084178 17.94555756 -90.36446838 30.85742365 -91.2734375 43.93359375 C-91.75991529 59.23042867 -88.25275911 71.68880152 -77.8984375 83.37109375 C-68.68882954 93.00795156 -57.40229946 99.32469467 -43.87109375 100.203125 C-28.01652792 100.41956958 -15.07072755 96.50899482 -3.34008789 85.64038086 C6.97453305 75.43654348 11.96388606 62.4206122 12.375 48 C12.01710669 34.4447908 7.60914057 21.82753013 -2 12 C-14.14964681 0.910686 -26.7795054 -3.57392577 -43.0859375 -3.3125 C-53.50920678 -2.48030285 -62.50228818 0.99789872 -71 7 Z " fill="#000000" transform="translate(150,57)"/>
<path d="M0 0 C2.4375 0.5625 2.4375 0.5625 4.3125 2.6875 C5.67998438 6.18218231 5.54532533 8.00163288 4.4375 11.5625 C1.4375 13.5625 1.4375 13.5625 -1.625 13.3125 C-4.5625 12.5625 -4.5625 12.5625 -6.5625 10.5625 C-7.03633353 6.92977627 -7.0216452 5.20870436 -4.875 2.1875 C-2.5625 0.5625 -2.5625 0.5625 0 0 Z " fill="#000000" transform="translate(90.5625,96.4375)"/>
<path d="M0 0 C2.9375 0.875 2.9375 0.875 4.375 2.5625 C5.12974007 5.6653203 4.80227202 7.81503747 3.9375 10.875 C0.9375 12.875 0.9375 12.875 -2.125 12.6875 C-5.0625 11.875 -5.0625 11.875 -7.0625 8.875 C-6.875 5.3125 -6.875 5.3125 -6.0625 1.875 C-3.0625 -0.125 -3.0625 -0.125 0 0 Z " fill="#000000" transform="translate(134.0625,97.125)"/>
<path d="M0 0 C4.14960634 0.62635567 5.66305635 2.25547035 8.66796875 5.03125 C12.69424077 8.6271604 16.91698783 8.88754668 22.109375 8.75 C26.8149624 8.21603264 29.95586462 5.86715902 33.375 2.8125 C36.3125 0.5 36.3125 0.5 39.0625 0.0625 C41.3125 0.5 41.3125 0.5 43.3125 2.5 C43.5 5.6875 43.5 5.6875 42.3125 9.5 C36.63242949 15.78405991 29.50504401 18.66571039 21.25390625 19.77734375 C13.36155881 20.17434312 5.41251886 17.43811051 -0.6875 12.5 C-3.23755498 9.88283831 -4.55515249 8.44849051 -5.0625 4.8125 C-4.50036468 1.34599886 -3.3937626 0.63139769 0 0 Z " fill="#000000" transform="translate(91.6875,119.5)"/>
<path d="M0 0 C2.01822211 1.77390785 2.89726301 3.25286169 3.26501465 5.92727661 C3.36479216 8.37492297 3.36301657 10.80445239 3.328125 13.25390625 C3.32531525 14.5998008 3.32531525 14.5998008 3.32244873 15.97288513 C3.31573535 17.86664556 3.30183501 19.76039229 3.28125 21.65405273 C3.25007729 24.55530666 3.24027566 27.45601701 3.234375 30.35742188 C3.22520528 32.1979233 3.2148296 34.0384192 3.203125 35.87890625 C3.19675018 37.18209557 3.19675018 37.18209557 3.19024658 38.51161194 C3.17583527 39.72318214 3.17583527 39.72318214 3.16113281 40.95922852 C3.15430481 41.66886246 3.14747681 42.3784964 3.14044189 43.1096344 C3 45 3 45 2 48 C-0.82883747 49.41441874 -2.87376745 49.31900332 -6 49 C-8.01573068 47.23995893 -8.88804183 45.78042879 -9.26992798 43.1184082 C-9.38158284 40.74007638 -9.38933014 38.38083188 -9.36328125 36 C-9.36377975 35.12730469 -9.36427826 34.25460938 -9.36479187 33.35546875 C-9.3624546 31.51299763 -9.3527465 29.67052313 -9.33618164 27.828125 C-9.31258479 25.0101258 -9.31562387 22.19307294 -9.32226562 19.375 C-9.31668868 17.5833277 -9.30957869 15.79165938 -9.30078125 14 C-9.30169266 13.15824219 -9.30260406 12.31648437 -9.30354309 11.44921875 C-9.29401108 10.66160156 -9.28447906 9.87398437 -9.2746582 9.0625 C-9.27005081 8.37285156 -9.26544342 7.68320313 -9.26069641 6.97265625 C-8.94967744 4.61921565 -8.23671491 3.01899846 -7 1 C-4.4254716 -0.2872642 -2.85291355 -0.34791629 0 0 Z " fill="#000000" transform="translate(62,215)"/>
</svg>
